PathFileType  4	(X/Y/Z) /dataNAS/people/anoopai/OpenCap/opencap-core/Examples/Data/d712a0c6-d1a0-423f-8dc2-b78d41b5c55e/MarkerData/PreAugmentation
DataRate	CameraRate	NumFrames	NumMarkers	Units	OrigDataRate	OrigDataStartFrame	OrigNumFrames
60.0	60.0	14	20	m	60.0	22	43
Frame#	Time	Neck			RShoulder			RElbow			RWrist			LShoulder			LElbow			LWrist			midHip			RHip			RKnee			RAnkle			LHip			LKnee			LAnkle			LBigToe			LSmallToe			LHeel			RBigToe			RSmallToe			RHeel			
		X1	Y1	Z1	X2	Y2	Z2	X3	Y3	Z3	X4	Y4	Z4	X5	Y5	Z5	X6	Y6	Z6	X7	Y7	Z7	X8	Y8	Z8	X9	Y9	Z9	X10	Y10	Z10	X11	Y11	Z11	X12	Y12	Z12	X13	Y13	Z13	X14	Y14	Z14	X15	Y15	Z15	X16	Y16	Z16	X17	Y17	Z17	X18	Y18	Z18	X19	Y19	Z19	X20	Y20	Z20	

22	0.3500000	0.1779200	1.3021700	-0.1546600	0.2282800	1.3036700	0.0197500	0.2664100	0.9855800	0.0993600	0.2832500	0.6699300	0.1194400	0.1338000	1.3017200	-0.3355300	0.1626100	0.9742000	-0.3885100	0.2550900	0.6889300	-0.3761400	0.2051200	0.7083900	-0.1521400	0.2632200	0.7208100	-0.0198500	0.1759200	0.2663900	0.0289100	0.1280400	-0.1685400	0.0252700	0.1521400	0.6970200	-0.2891200	0.0184600	0.2495000	-0.2703200	-0.0448100	-0.1989500	-0.2889700	0.0973700	-0.2708200	-0.3844000	0.0908600	-0.2687800	-0.3814800	-0.0719000	-0.2315900	-0.2669700	0.3295700	-0.2391200	0.0187000	0.3250200	-0.2368200	0.0206100	0.0971700	-0.1995900	0.0182700
23	0.3666667	0.1777300	1.3023700	-0.1554600	0.2262700	1.3048200	0.0193100	0.2657300	0.9869200	0.0991600	0.2808500	0.6739600	0.1186900	0.1355700	1.3011900	-0.3362100	0.1655800	0.9741400	-0.3878600	0.2604900	0.6901900	-0.3744500	0.2038600	0.7086000	-0.1527900	0.2617600	0.7205300	-0.0200500	0.1753500	0.2655400	0.0287600	0.1283400	-0.1692800	0.0252000	0.1516200	0.6971000	-0.2900000	0.0186000	0.2496500	-0.2705800	-0.0448400	-0.1990600	-0.2884700	0.0975100	-0.2704800	-0.3834800	0.0909200	-0.2684900	-0.3804100	-0.0718500	-0.2314000	-0.2664200	0.3301200	-0.2388200	0.0189000	0.3255600	-0.2365000	0.0208200	0.0974300	-0.2002100	0.0182400
24	0.3833333	0.1769200	1.3034000	-0.1559800	0.2240400	1.3069700	0.0182300	0.2651900	0.9886600	0.0995500	0.2788300	0.6796900	0.1177300	0.1363000	1.3013100	-0.3363500	0.1686000	0.9740600	-0.3854500	0.2663300	0.6910900	-0.3722400	0.2030500	0.7085500	-0.1524400	0.2596700	0.7207100	-0.0199000	0.1748100	0.2646500	0.0287100	0.1285400	-0.1699300	0.0252000	0.1517800	0.6971400	-0.2893700	0.0186300	0.2497200	-0.2707900	-0.0447200	-0.1990900	-0.2888800	0.0977300	-0.2706800	-0.3849500	0.0911600	-0.2687200	-0.3819400	-0.0718100	-0.2313300	-0.2668900	0.3305400	-0.2386900	0.0190100	0.3259700	-0.2363400	0.0209100	0.0976600	-0.2006900	0.0182500
25	0.4000000	0.1771800	1.3030300	-0.1561800	0.2229300	1.3068000	0.0184000	0.2653700	0.9891000	0.0996800	0.2816900	0.6769900	0.1193800	0.1377900	1.3007200	-0.3367300	0.1707800	0.9737200	-0.3845000	0.2702900	0.6916200	-0.3714100	0.2023000	0.7084400	-0.1519500	0.2579400	0.7205300	-0.0198100	0.1743000	0.2637900	0.0287100	0.1286800	-0.1703400	0.0251700	0.1519900	0.6971300	-0.2885600	0.0187700	0.2497000	-0.2707500	-0.0448500	-0.1993100	-0.2891700	0.0971900	-0.2707900	-0.3841900	0.0907300	-0.2687200	-0.3810100	-0.0722800	-0.2316500	-0.2670700	0.3310400	-0.2390500	0.0190300	0.3265100	-0.2367100	0.0209200	0.0978400	-0.2011200	0.0184100
26	0.4166667	0.1767600	1.3035300	-0.1568400	0.2215000	1.3078100	0.0178100	0.2649600	0.9911400	0.0998100	0.2799600	0.6844100	0.1185000	0.1393800	1.2999900	-0.3368300	0.1733800	0.9731700	-0.3835400	0.2740000	0.6919100	-0.3700800	0.2014300	0.7083100	-0.1525000	0.2567900	0.7199400	-0.0198400	0.1739900	0.2629000	0.0288400	0.1288100	-0.1709600	0.0253100	0.1515600	0.6969200	-0.2895300	0.0186100	0.2496500	-0.2706900	-0.0449600	-0.1995000	-0.2891500	0.0972200	-0.2708100	-0.3849100	0.0907000	-0.2688300	-0.3818100	-0.0720600	-0.2316000	-0.2668600	0.3312200	-0.2390000	0.0190200	0.3266800	-0.2366500	0.0208900	0.0981200	-0.2017800	0.0186600
27	0.4333333	0.1768900	1.3033400	-0.1568800	0.2205600	1.3079300	0.0178900	0.2654300	0.9912000	0.1005800	0.2820100	0.6831900	0.1196400	0.1400900	1.2997800	-0.3371700	0.1750800	0.9727500	-0.3820200	0.2753900	0.6920900	-0.3691300	0.1997000	0.7087900	-0.1509600	0.2548800	0.7202700	-0.0193600	0.1735400	0.2623200	0.0287500	0.1288800	-0.1714200	0.0254900	0.1505000	0.6974100	-0.2869800	0.0186200	0.2495500	-0.2707000	-0.0449700	-0.1996300	-0.2890700	0.0971400	-0.2710700	-0.3862800	0.0905700	-0.2691700	-0.3832700	-0.0723000	-0.2319700	-0.2672100	0.3314500	-0.2391900	0.0189300	0.3269000	-0.2368100	0.0207900	0.0981700	-0.2018400	0.0189000
28	0.4500000	0.1775600	1.3024400	-0.1565400	0.2198500	1.3076900	0.0180300	0.2655500	0.9918400	0.1012000	0.2828100	0.6838700	0.1202600	0.1412500	1.2992100	-0.3372500	0.1769900	0.9722400	-0.3807900	0.2768000	0.6918200	-0.3689800	0.1991000	0.7088200	-0.1500400	0.2539100	0.7199000	-0.0190700	0.1732800	0.2617800	0.0288500	0.1287000	-0.1713600	0.0257000	0.1502900	0.6976100	-0.2857300	0.0189800	0.2494200	-0.2703200	-0.0449200	-0.1997600	-0.2892700	0.0971700	-0.2707600	-0.3856900	0.0906500	-0.2688100	-0.3826000	-0.0725200	-0.2323900	-0.2671300	0.3317100	-0.2397100	0.0188000	0.3272200	-0.2373700	0.0206500	0.0984400	-0.2023500	0.0192600
29	0.4666667	0.1777900	1.3021500	-0.1563300	0.2191100	1.3078700	0.0180800	0.2658300	0.9917800	0.1020000	0.2829800	0.6847900	0.1207800	0.1420900	1.2988300	-0.3371900	0.1783500	0.9716500	-0.3805500	0.2774300	0.6914200	-0.3684500	0.1986800	0.7087700	-0.1503900	0.2526700	0.7199700	-0.0190100	0.1729800	0.2614700	0.0289200	0.1286300	-0.1713900	0.0258300	0.1506100	0.6975100	-0.2863000	0.0189000	0.2493600	-0.2700700	-0.0448400	-0.1998700	-0.2892500	0.0970300	-0.2705900	-0.3850000	0.0906200	-0.2685200	-0.3818000	-0.0723400	-0.2326200	-0.2671100	0.3317200	-0.2401000	0.0186200	0.3272400	-0.2377900	0.0205000	0.0985200	-0.2022600	0.0195500
30	0.4833333	0.1778500	1.3021200	-0.1560100	0.2184800	1.3079800	0.0179200	0.2653300	0.9932700	0.1023500	0.2826500	0.6855800	0.1211400	0.1428000	1.2985400	-0.3366900	0.1789900	0.9712000	-0.3800600	0.2783600	0.6906800	-0.3680300	0.1974800	0.7092100	-0.1492600	0.2516300	0.7199300	-0.0184700	0.1728600	0.2611700	0.0290500	0.1286100	-0.1717500	0.0261100	0.1487000	0.6981000	-0.2849200	0.0189900	0.2493100	-0.2693600	-0.0446400	-0.1998900	-0.2891400	0.0968600	-0.2709300	-0.3860200	0.0903700	-0.2689500	-0.3829500	-0.0722200	-0.2328500	-0.2666200	0.3312400	-0.2397200	0.0183900	0.3267000	-0.2373700	0.0202600	0.0985000	-0.2020400	0.0199900
31	0.5000000	0.1778000	1.3022400	-0.1563300	0.2179000	1.3083400	0.0178300	0.2646900	0.9946000	0.1025200	0.2822500	0.6849700	0.1217400	0.1434300	1.2982200	-0.3370300	0.1793200	0.9708400	-0.3793300	0.2784400	0.6897800	-0.3675000	0.1980200	0.7088600	-0.1498100	0.2509800	0.7197900	-0.0187600	0.1726600	0.2609700	0.0291000	0.1284600	-0.1714900	0.0261800	0.1502900	0.6978400	-0.2858600	0.0192500	0.2492700	-0.2690000	-0.0445700	-0.1999800	-0.2887500	0.0966700	-0.2708000	-0.3851800	0.0902200	-0.2687700	-0.3820200	-0.0723700	-0.2332000	-0.2660900	0.3311200	-0.2401700	0.0180900	0.3266000	-0.2378400	0.0199400	0.0987000	-0.2019200	0.0202200
32	0.5166667	0.1775600	1.3026800	-0.1568600	0.2173400	1.3090800	0.0177700	0.2642800	0.9945400	0.1032600	0.2807300	0.6861000	0.1218000	0.1439500	1.2979600	-0.3374500	0.1804400	0.9705100	-0.3777400	0.2762600	0.6888600	-0.3672100	0.1980700	0.7088100	-0.1495400	0.2504800	0.7196500	-0.0185800	0.1722900	0.2608400	0.0293500	0.1283100	-0.1713000	0.0263600	0.1506900	0.6979300	-0.2856500	0.0195200	0.2492800	-0.2683500	-0.0443600	-0.1999800	-0.2887400	0.0969700	-0.2707300	-0.3859800	0.0905300	-0.2687300	-0.3829600	-0.0717900	-0.2331100	-0.2659800	0.3307800	-0.2402200	0.0178500	0.3262400	-0.2378900	0.0196900	0.0986600	-0.2012900	0.0203900
33	0.5333333	0.1776900	1.3027700	-0.1565600	0.2170400	1.3094000	0.0179800	0.2632900	0.9948200	0.1036000	0.2798200	0.6839200	0.1224500	0.1445300	1.2977100	-0.3370100	0.1806300	0.9700800	-0.3774800	0.2740900	0.6876400	-0.3672800	0.1976600	0.7089800	-0.1497500	0.2498500	0.7199100	-0.0184000	0.1720700	0.2606700	0.0293800	0.1281000	-0.1708400	0.0264500	0.1514200	0.6979000	-0.2857700	0.0201700	0.2492900	-0.2674700	-0.0444400	-0.2001300	-0.2884800	0.0966100	-0.2707500	-0.3850400	0.0901700	-0.2687000	-0.3819300	-0.0720500	-0.2334000	-0.2657300	0.3305100	-0.2405300	0.0176000	0.3259800	-0.2382300	0.0194800	0.0986900	-0.2007000	0.0204400
34	0.5500000	0.1785500	1.3019200	-0.1556800	0.2170200	1.3090600	0.0184400	0.2616200	0.9953600	0.1034900	0.2779900	0.6829100	0.1227400	0.1454900	1.2972000	-0.3363800	0.1801300	0.9696400	-0.3777300	0.2722200	0.6864100	-0.3664400	0.1977100	0.7090400	-0.1495000	0.2494300	0.7202000	-0.0182800	0.1719000	0.2605300	0.0294900	0.1280000	-0.1704400	0.0264100	0.1516500	0.6979800	-0.2855900	0.0206700	0.2493600	-0.2668600	-0.0444300	-0.2001600	-0.2880100	0.0966600	-0.2703700	-0.3838300	0.0901200	-0.2683700	-0.3806700	-0.0719200	-0.2333600	-0.2650500	0.3301100	-0.2406600	0.0173600	0.3255600	-0.2383600	0.0192500	0.0987900	-0.2001300	0.0203100
35	0.5666667	0.1788400	1.3017800	-0.1553900	0.2167900	1.3092600	0.0184300	0.2594100	0.9956700	0.1035300	0.2752700	0.6828600	0.1226700	0.1463000	1.2967500	-0.3359700	0.1796600	0.9692500	-0.3775100	0.2696600	0.6849300	-0.3664000	0.1991100	0.7084300	-0.1496200	0.2497400	0.7198300	-0.0184500	0.1716700	0.2605500	0.0297500	0.1279600	-0.1701700	0.0263500	0.1540000	0.6975300	-0.2860300	0.0211400	0.2494500	-0.2659200	-0.0444500	-0.2001800	-0.2879200	0.0966800	-0.2706100	-0.3848000	0.0902200	-0.2685400	-0.3816800	-0.0718600	-0.2333400	-0.2651500	0.3295600	-0.2405600	0.0171100	0.3249900	-0.2382300	0.0189600	0.0990800	-0.1998600	0.0200500
